<svg width="52" height="52" viewBox="0 0 52 52" fill="none" xmlns="http://www.w3.org/2000/svg">
<g id="mdi:youtube">
<path id="Vector" d="M21.75 32.7227L32.7787 26.3477L21.75 19.9727V32.7227ZM46.315 16.0839C46.5912 17.0827 46.7825 18.4214 46.91 20.1214C47.0588 21.8214 47.1225 23.2877 47.1225 24.5627L47.25 26.3477C47.25 31.0014 46.91 34.4227 46.315 36.6114C45.7837 38.5239 44.5513 39.7564 42.6387 40.2877C41.64 40.5639 39.8125 40.7552 37.0075 40.8827C34.245 41.0314 31.7162 41.0952 29.3787 41.0952L26 41.2227C17.0962 41.2227 11.55 40.8827 9.36125 40.2877C7.44875 39.7564 6.21625 38.5239 5.685 36.6114C5.40875 35.6127 5.2175 34.2739 5.09 32.5739C4.94125 30.8739 4.8775 29.4077 4.8775 28.1327L4.75 26.3477C4.75 21.6939 5.09 18.2727 5.685 16.0839C6.21625 14.1714 7.44875 12.9389 9.36125 12.4077C10.36 12.1314 12.1875 11.9402 14.9925 11.8127C17.755 11.6639 20.2837 11.6002 22.6213 11.6002L26 11.4727C34.9037 11.4727 40.45 11.8127 42.6387 12.4077C44.5513 12.9389 45.7837 14.1714 46.315 16.0839Z" fill="#C1B2FF"/>
</g>
</svg>
