<svg width="43" height="43" viewBox="0 0 43 43" fill="none" xmlns="http://www.w3.org/2000/svg">
<g id="mdi:instagram">
<path id="Vector" d="M14.15 4.34766H28.85C34.45 4.34766 39 8.89766 39 14.4977V29.1977C39 31.8896 37.9306 34.4713 36.0271 36.3748C34.1236 38.2783 31.5419 39.3477 28.85 39.3477H14.15C8.55 39.3477 4 34.7977 4 29.1977V14.4977C4 11.8057 5.06937 9.22402 6.97287 7.32052C8.87636 5.41703 11.4581 4.34766 14.15 4.34766ZM13.8 7.84766C12.1291 7.84766 10.5267 8.5114 9.34523 9.69288C8.16375 10.8744 7.5 12.4768 7.5 14.1477V29.5477C7.5 33.0302 10.3175 35.8477 13.8 35.8477H29.2C30.8709 35.8477 32.4733 35.1839 33.6548 34.0024C34.8363 32.821 35.5 31.2185 35.5 29.5477V14.1477C35.5 10.6652 32.6825 7.84766 29.2 7.84766H13.8ZM30.6875 10.4727C31.2677 10.4727 31.8241 10.7031 32.2343 11.1134C32.6445 11.5236 32.875 12.08 32.875 12.6602C32.875 13.2403 32.6445 13.7967 32.2343 14.207C31.8241 14.6172 31.2677 14.8477 30.6875 14.8477C30.1073 14.8477 29.5509 14.6172 29.1407 14.207C28.7305 13.7967 28.5 13.2403 28.5 12.6602C28.5 12.08 28.7305 11.5236 29.1407 11.1134C29.5509 10.7031 30.1073 10.4727 30.6875 10.4727ZM21.5 13.0977C23.8206 13.0977 26.0462 14.0195 27.6872 15.6605C29.3281 17.3014 30.25 19.527 30.25 21.8477C30.25 24.1683 29.3281 26.3939 27.6872 28.0348C26.0462 29.6758 23.8206 30.5977 21.5 30.5977C19.1794 30.5977 16.9538 29.6758 15.3128 28.0348C13.6719 26.3939 12.75 24.1683 12.75 21.8477C12.75 19.527 13.6719 17.3014 15.3128 15.6605C16.9538 14.0195 19.1794 13.0977 21.5 13.0977ZM21.5 16.5977C20.1076 16.5977 18.7723 17.1508 17.7877 18.1353C16.8031 19.1199 16.25 20.4553 16.25 21.8477C16.25 23.24 16.8031 24.5754 17.7877 25.56C18.7723 26.5445 20.1076 27.0977 21.5 27.0977C22.8924 27.0977 24.2277 26.5445 25.2123 25.56C26.1969 24.5754 26.75 23.24 26.75 21.8477C26.75 20.4553 26.1969 19.1199 25.2123 18.1353C24.2277 17.1508 22.8924 16.5977 21.5 16.5977Z" fill="#C1B2FF"/>
</g>
</svg>
