<svg width="15" height="11" viewBox="0 0 15 11" fill="none" xmlns="http://www.w3.org/2000/svg">
<path id="Vector" d="M8.293 0.299134C8.48053 0.111663 8.73484 0.00634766 9 0.00634766C9.26516 0.00634766 9.51947 0.111663 9.707 0.299134L14.207 4.79913C14.3945 4.98666 14.4998 5.24097 14.4998 5.50613C14.4998 5.7713 14.3945 6.02561 14.207 6.21313L9.707 10.7131C9.5184 10.8953 9.2658 10.9961 9.0036 10.9938C8.7414 10.9915 8.49059 10.8864 8.30518 10.701C8.11977 10.5155 8.0146 10.2647 8.01233 10.0025C8.01005 9.74034 8.11084 9.48774 8.293 9.29913L11 6.50613H1.5C1.23478 6.50613 0.98043 6.40078 0.792893 6.21324C0.605357 6.0257 0.5 5.77135 0.5 5.50613C0.5 5.24092 0.605357 4.98656 0.792893 4.79903C0.98043 4.61149 1.23478 4.50613 1.5 4.50613H11L8.293 1.71313C8.10553 1.52561 8.00021 1.2713 8.00021 1.00613C8.00021 0.74097 8.10553 0.486662 8.293 0.299134Z" fill="white"/>
</svg>
